<svg xmlns="http://www.w3.org/2000/svg" xmlns:xlink="http://www.w3.org/1999/xlink" width="1080" zoomAndPan="magnify" viewBox="0 0 810 809.999993" height="1080" preserveAspectRatio="xMidYMid meet" version="1.0"><defs><clipPath id="377132678a"><path d="M 68 460 L 742 460 L 742 809.8125 L 68 809.8125 Z M 68 460 " clip-rule="nonzero"/></clipPath><clipPath id="464b1cbcb3"><path d="M 560 41.0625 L 644 41.0625 L 644 124 L 560 124 Z M 560 41.0625 " clip-rule="nonzero"/></clipPath><clipPath id="dcf47df62c"><path d="M 167 41.0625 L 250 41.0625 L 250 124 L 167 124 Z M 167 41.0625 " clip-rule="nonzero"/></clipPath></defs><rect x="-81" width="972" fill="#ffffff" y="-80.999999" height="971.999992" fill-opacity="1"/><rect x="-81" width="972" fill="#ffffff" y="-80.999999" height="971.999992" fill-opacity="1"/><rect x="-81" width="972" fill="#ffffff" y="-80.999999" height="971.999992" fill-opacity="1"/><path fill="#000000" d="M 395.71875 85.285156 C 299.347656 89.828125 220.210938 165.539062 211.652344 261.425781 C 206.214844 322.316406 228.859375 380.851562 273.789062 422.023438 C 299.621094 445.691406 314.445312 478.539062 314.445312 512.148438 C 314.445312 519.304688 320.234375 525.089844 327.394531 525.089844 L 482.769531 525.089844 C 489.929688 525.089844 495.71875 519.304688 495.71875 512.148438 C 495.71875 478.71875 510.722656 445.691406 536.917969 421.515625 C 576.566406 384.917969 599.300781 333.03125 599.300781 279.195312 C 599.300781 225.601562 577.9375 175.722656 539.132812 138.722656 C 500.339844 101.746094 449.363281 82.800781 395.71875 85.285156 Z M 519.335938 402.503906 C 491.210938 428.464844 473.808594 463.136719 470.429688 499.207031 L 339.746094 499.179688 C 336.390625 462.984375 319.160156 428.480469 291.292969 402.933594 C 252.359375 367.25 232.742188 316.507812 237.457031 263.714844 C 244.863281 180.65625 313.4375 115.066406 396.9375 111.132812 C 443.34375 108.984375 487.652344 125.394531 521.265625 157.4375 C 554.878906 189.507812 573.40625 232.746094 573.40625 279.195312 C 573.40625 325.835938 553.710938 370.785156 519.335938 402.503906 Z M 519.335938 402.503906 " fill-opacity="1" fill-rule="nonzero"/><path fill="#000000" d="M 327.394531 538.03125 L 482.769531 538.03125 L 482.769531 563.917969 L 327.394531 563.917969 Z M 327.394531 538.03125 " fill-opacity="1" fill-rule="nonzero"/><path fill="#000000" d="M 353.289062 576.859375 C 346.128906 576.859375 340.339844 582.644531 340.339844 589.800781 L 340.339844 602.742188 C 340.339844 638.421875 369.382812 667.453125 405.082031 667.453125 C 440.78125 667.453125 469.820312 638.421875 469.820312 602.742188 L 469.820312 589.800781 C 469.820312 582.644531 464.035156 576.859375 456.875 576.859375 Z M 405.082031 641.570312 C 383.664062 641.570312 366.238281 624.148438 366.238281 602.742188 L 443.925781 602.742188 C 443.925781 624.148438 426.496094 641.570312 405.082031 641.570312 Z M 405.082031 641.570312 " fill-opacity="1" fill-rule="nonzero"/><g clip-path="url(#377132678a)"><path fill="#000000" d="M 702.886719 460.382812 L 547.507812 460.382812 L 547.507812 486.265625 L 702.886719 486.265625 C 710.03125 486.265625 715.832031 492.0625 715.832031 499.207031 L 715.832031 770.988281 C 715.832031 778.132812 710.03125 783.929688 702.886719 783.929688 L 498.851562 783.929688 C 468.605469 783.929688 440.15625 772.671875 418.03125 752.339844 L 418.03125 693.335938 L 392.132812 693.335938 L 392.132812 752.339844 C 370.003906 772.671875 341.558594 783.929688 311.3125 783.929688 L 107.277344 783.929688 C 100.128906 783.929688 94.328125 778.132812 94.328125 770.988281 L 94.328125 499.207031 C 94.328125 492.0625 100.128906 486.265625 107.277344 486.265625 L 262.652344 486.265625 L 262.652344 460.382812 L 107.277344 460.382812 C 85.863281 460.382812 68.433594 477.800781 68.433594 499.207031 L 68.433594 770.988281 C 68.433594 792.394531 85.863281 809.8125 107.277344 809.8125 L 311.3125 809.8125 C 346.027344 809.8125 378.875 797.75 405.082031 775.609375 C 431.289062 797.75 464.152344 809.8125 498.851562 809.8125 L 702.886719 809.8125 C 724.300781 809.8125 741.730469 792.394531 741.730469 770.988281 L 741.730469 499.207031 C 741.730469 477.800781 724.300781 460.382812 702.886719 460.382812 Z M 702.886719 460.382812 " fill-opacity="1" fill-rule="nonzero"/></g><path fill="#000000" d="M 275.601562 227.425781 L 275.601562 330.960938 C 275.601562 338.121094 281.390625 343.902344 288.550781 343.902344 L 521.613281 343.902344 C 528.773438 343.902344 534.5625 338.121094 534.5625 330.960938 L 534.5625 227.425781 C 534.5625 220.269531 528.773438 214.484375 521.613281 214.484375 L 288.550781 214.484375 C 281.390625 214.484375 275.601562 220.269531 275.601562 227.425781 Z M 301.496094 240.367188 L 508.664062 240.367188 L 508.664062 318.019531 L 301.496094 318.019531 Z M 301.496094 240.367188 " fill-opacity="1" fill-rule="nonzero"/><path fill="#000000" d="M 327.394531 266.253906 L 379.1875 266.253906 L 379.1875 292.136719 L 327.394531 292.136719 Z M 327.394531 266.253906 " fill-opacity="1" fill-rule="nonzero"/><path fill="#000000" d="M 405.082031 266.253906 L 482.769531 266.253906 L 482.769531 292.136719 L 405.082031 292.136719 Z M 405.082031 266.253906 " fill-opacity="1" fill-rule="nonzero"/><path fill="#000000" d="M 638.144531 266.253906 L 728.78125 266.253906 L 728.78125 292.136719 L 638.144531 292.136719 Z M 638.144531 266.253906 " fill-opacity="1" fill-rule="nonzero"/><path fill="#000000" d="M 81.382812 266.253906 L 172.015625 266.253906 L 172.015625 292.136719 L 81.382812 292.136719 Z M 81.382812 266.253906 " fill-opacity="1" fill-rule="nonzero"/><g clip-path="url(#464b1cbcb3)"><path fill="#000000" d="M 560.710938 105.332031 L 624.808594 41.261719 L 643.121094 59.5625 L 579.023438 123.632812 Z M 560.710938 105.332031 " fill-opacity="1" fill-rule="nonzero"/></g><g clip-path="url(#dcf47df62c)"><path fill="#000000" d="M 167.023438 59.566406 L 185.335938 41.261719 L 249.433594 105.328125 L 231.121094 123.632812 Z M 167.023438 59.566406 " fill-opacity="1" fill-rule="nonzero"/></g><path fill="#000000" d="M 133.171875 550.976562 L 249.707031 550.976562 L 249.707031 576.859375 L 133.171875 576.859375 Z M 133.171875 550.976562 " fill-opacity="1" fill-rule="nonzero"/><path fill="#000000" d="M 133.171875 615.683594 L 275.601562 615.683594 L 275.601562 641.570312 L 133.171875 641.570312 Z M 133.171875 615.683594 " fill-opacity="1" fill-rule="nonzero"/><path fill="#000000" d="M 133.171875 680.394531 L 301.496094 680.394531 L 301.496094 706.277344 L 133.171875 706.277344 Z M 133.171875 680.394531 " fill-opacity="1" fill-rule="nonzero"/><path fill="#000000" d="M 560.457031 550.976562 L 676.988281 550.976562 L 676.988281 576.859375 L 560.457031 576.859375 Z M 560.457031 550.976562 " fill-opacity="1" fill-rule="nonzero"/><path fill="#000000" d="M 534.5625 615.683594 L 676.988281 615.683594 L 676.988281 641.570312 L 534.5625 641.570312 Z M 534.5625 615.683594 " fill-opacity="1" fill-rule="nonzero"/><path fill="#000000" d="M 508.664062 680.394531 L 676.988281 680.394531 L 676.988281 706.277344 L 508.664062 706.277344 Z M 508.664062 680.394531 " fill-opacity="1" fill-rule="nonzero"/></svg>