<svg xmlns="http://www.w3.org/2000/svg" xmlns:xlink="http://www.w3.org/1999/xlink" width="1080" zoomAndPan="magnify" viewBox="0 0 810 809.999993" height="1080" preserveAspectRatio="xMidYMid meet" version="1.0"><path fill="#000000" d="M 175.5 810 C 182.953125 810 189 803.964844 189 796.5 L 189 715.5 C 189 686.421875 170.410156 661.808594 144.585938 652.332031 C 155.289062 640.371094 162 624.765625 162 607.5 C 162 606.136719 161.972656 604.773438 161.890625 604.113281 C 160.082031 568.160156 130.476562 540 94.5 540 C 58.523438 540 28.917969 568.160156 27.160156 603.410156 C 27.027344 604.773438 27 606.136719 27 607.5 C 27 624.765625 33.710938 640.371094 44.414062 652.332031 C 18.589844 661.808594 0 686.421875 0 715.5 L 0 796.5 C 0 803.964844 6.046875 810 13.5 810 Z M 94.5 648 C 76.53125 648 61.4375 636.160156 56.148438 619.921875 C 78.800781 604.433594 110.1875 604.433594 132.839844 619.921875 C 127.574219 636.160156 112.46875 648 94.5 648 Z M 94.5 567 C 109.28125 567 122.132812 575.03125 129.207031 587.195312 C 118.246094 582.835938 106.488281 580.5 94.5 580.5 C 82.457031 580.5 70.644531 582.863281 59.628906 587.261719 C 66.648438 575.167969 79.597656 567 94.5 567 Z M 27 715.5 C 27 693.171875 45.171875 675 67.5 675 L 121.5 675 C 143.828125 675 162 693.171875 162 715.5 L 162 783 L 27 783 Z M 27 715.5 " fill-opacity="1" fill-rule="nonzero"/><path fill="#000000" d="M 765.585938 652.332031 C 776.289062 640.371094 783 624.765625 783 607.5 C 783 606.136719 782.972656 604.773438 782.890625 604.113281 C 781.082031 568.160156 751.476562 540 715.5 540 C 679.523438 540 649.917969 568.160156 648.160156 603.410156 C 648.027344 604.773438 648 606.136719 648 607.5 C 648 624.765625 654.710938 640.371094 665.414062 652.332031 C 639.589844 661.808594 621 686.421875 621 715.5 L 621 796.5 C 621 803.964844 627.046875 810 634.5 810 L 796.5 810 C 803.953125 810 810 803.964844 810 796.5 L 810 715.5 C 810 686.421875 791.410156 661.808594 765.585938 652.332031 Z M 715.5 648 C 697.53125 648 682.4375 636.160156 677.144531 619.921875 C 699.800781 604.433594 731.1875 604.433594 753.839844 619.921875 C 748.574219 636.160156 733.46875 648 715.5 648 Z M 715.5 567 C 730.28125 567 743.132812 575.03125 750.207031 587.195312 C 739.246094 582.835938 727.488281 580.5 715.5 580.5 C 703.457031 580.5 691.644531 582.863281 680.628906 587.261719 C 687.648438 575.167969 700.597656 567 715.5 567 Z M 783 783 L 648 783 L 648 715.5 C 648 693.171875 666.171875 675 688.5 675 L 742.5 675 C 764.828125 675 783 693.171875 783 715.5 Z M 783 783 " fill-opacity="1" fill-rule="nonzero"/><path fill="#000000" d="M 554.148438 154.265625 C 511.054688 113.117188 454.355469 92.015625 394.78125 94.742188 C 283.890625 99.871094 193.589844 190.78125 189.175781 301.710938 C 186.246094 375.460938 220.5625 444.839844 280.988281 487.269531 C 291.019531 494.300781 297 506.359375 297 519.507812 L 297 567 C 297 574.464844 303.046875 580.5 310.5 580.5 L 499.5 580.5 C 506.953125 580.5 513 574.464844 513 567 L 513 519.480469 C 513 506.359375 519.089844 494.25 529.28125 487.078125 C 586.710938 446.621094 621 380.605469 621 310.5 C 621 250.910156 597.265625 195.425781 554.148438 154.265625 Z M 513.730469 465.007812 C 496.367188 477.238281 486 497.582031 486 519.480469 L 486 553.5 L 324 553.5 L 324 519.507812 C 324 497.554688 313.714844 477.238281 296.5 465.167969 C 243.621094 428.03125 213.582031 367.320312 216.148438 302.792969 C 220.007812 205.738281 299.023438 126.199219 396.023438 121.714844 C 448.320312 119.191406 497.8125 137.78125 535.503906 173.785156 C 573.222656 209.804688 594 258.363281 594 310.5 C 594 371.832031 563.988281 429.597656 513.730469 465.007812 Z M 513.730469 465.007812 " fill-opacity="1" fill-rule="nonzero"/><path fill="#000000" d="M 324 607.5 L 486 607.5 L 486 634.5 L 324 634.5 Z M 324 607.5 " fill-opacity="1" fill-rule="nonzero"/><path fill="#000000" d="M 486 675 C 486 667.535156 479.953125 661.5 472.5 661.5 L 337.5 661.5 C 330.046875 661.5 324 667.535156 324 675 C 324 719.671875 360.328125 756 405 756 C 449.671875 756 486 719.671875 486 675 Z M 405 729 C 379.890625 729 358.722656 711.773438 352.699219 688.5 L 457.285156 688.5 C 451.277344 711.773438 430.109375 729 405 729 Z M 405 729 " fill-opacity="1" fill-rule="nonzero"/><path fill="#000000" d="M 526.5 216 L 522.003906 216 C 480.304688 216 439.035156 229.324219 405 253.410156 C 370.980469 229.324219 329.695312 216 287.996094 216 L 283.5 216 C 276.046875 216 270 222.035156 270 229.5 L 270 391.5 C 270 398.964844 276.046875 405 283.5 405 L 287.996094 405 C 325.714844 405 363.109375 417.460938 393.28125 440.101562 C 396.96875 442.867188 400.464844 445.5 405.296875 445.390625 C 409.886719 445.296875 413.179688 442.734375 416.675781 440.101562 C 446.851562 417.460938 484.246094 405 521.976562 405 L 526.5 405 C 533.953125 405 540 398.964844 540 391.5 L 540 229.5 C 540 222.035156 533.953125 216 526.5 216 Z M 297 243.242188 C 330.886719 245.011719 364.066406 256.757812 391.5 276.761719 L 391.5 406.457031 C 362.90625 389.527344 330.222656 379.714844 297 378.203125 Z M 513 378.214844 C 479.777344 379.714844 447.09375 389.527344 418.5 406.484375 L 418.5 276.777344 C 445.933594 256.769531 479.113281 245.011719 513 243.257812 Z M 513 378.214844 " fill-opacity="1" fill-rule="nonzero"/><path fill="#000000" d="M 488.566406 298.875 L 483.421875 272.375 C 468.492188 275.265625 453.882812 279.855469 440.019531 285.996094 L 450.96875 310.675781 C 462.96875 305.355469 475.617188 301.386719 488.566406 298.875 Z M 488.566406 298.875 " fill-opacity="1" fill-rule="nonzero"/><path fill="#000000" d="M 440.046875 337.851562 L 450.96875 362.554688 C 463.035156 357.210938 475.6875 353.253906 488.578125 350.742188 L 483.433594 324.242188 C 468.558594 327.132812 453.949219 331.707031 440.046875 337.851562 Z M 440.046875 337.851562 " fill-opacity="1" fill-rule="nonzero"/><path fill="#000000" d="M 321.433594 298.875 C 334.367188 301.402344 347.03125 305.355469 359.046875 310.675781 L 369.980469 285.996094 C 356.117188 279.855469 341.507812 275.265625 326.578125 272.375 Z M 321.433594 298.875 " fill-opacity="1" fill-rule="nonzero"/><path fill="#000000" d="M 321.433594 350.742188 C 334.328125 353.253906 346.992188 357.210938 359.046875 362.554688 L 369.96875 337.851562 C 356.0625 331.707031 341.457031 327.132812 326.578125 324.242188 Z M 321.433594 350.742188 " fill-opacity="1" fill-rule="nonzero"/><path fill="#000000" d="M 391.5 0 L 418.5 0 L 418.5 67.5 L 391.5 67.5 Z M 391.5 0 " fill-opacity="1" fill-rule="nonzero"/><path fill="#000000" d="M 648 297 L 715.5 297 L 715.5 324 L 648 324 Z M 648 297 " fill-opacity="1" fill-rule="nonzero"/><path fill="#000000" d="M 94.5 297 L 162 297 L 162 324 L 94.5 324 Z M 94.5 297 " fill-opacity="1" fill-rule="nonzero"/><path fill="#000000" d="M 175.890625 100.472656 L 194.984375 81.382812 L 242.71875 129.125 L 223.625 148.214844 Z M 175.890625 100.472656 " fill-opacity="1" fill-rule="nonzero"/><path fill="#000000" d="M 567.285156 129.105469 L 615.019531 81.363281 L 634.113281 100.453125 L 586.378906 148.195312 Z M 567.285156 129.105469 " fill-opacity="1" fill-rule="nonzero"/></svg>