<svg xmlns="http://www.w3.org/2000/svg" xmlns:xlink="http://www.w3.org/1999/xlink" width="1080" zoomAndPan="magnify" viewBox="0 0 810 809.999993" height="1080" preserveAspectRatio="xMidYMid meet" version="1.0"><defs><clipPath id="573f32ab1c"><path d="M 28.265625 81 L 782 81 L 782 777.75 L 28.265625 777.75 Z M 28.265625 81 " clip-rule="nonzero"/></clipPath></defs><g clip-path="url(#573f32ab1c)"><path fill="#100f0d" d="M 594.285156 435.210938 C 589.550781 430.050781 586.941406 423.355469 586.941406 416.351562 C 586.941406 408.398438 590.34375 400.792969 596.28125 395.492188 C 602.300781 390.113281 610.082031 387.648438 618.199219 388.554688 C 631.238281 390.007812 641.589844 400.558594 642.816406 413.636719 C 643.566406 421.707031 640.980469 429.398438 635.515625 435.296875 C 629.597656 441.691406 626.671875 450.253906 627.496094 458.789062 C 628.289062 467.015625 632.390625 474.226562 639.039062 479.082031 C 641.457031 480.84375 644.054688 482.3125 646.777344 483.449219 C 646.777344 483.449219 646.777344 483.449219 646.785156 483.449219 C 659.25 488.632812 667.628906 501.679688 667.628906 515.90625 L 667.628906 524.042969 L 562.96875 524.042969 L 562.96875 515.59375 C 562.96875 501.496094 571.292969 488.601562 583.671875 483.507812 C 585.082031 482.929688 586.492188 482.242188 587.851562 481.472656 C 595.542969 477.125 600.75 469.597656 602.128906 460.832031 C 603.59375 451.566406 600.730469 442.226562 594.285156 435.210938 Z M 732.324219 629.171875 L 78.117188 629.171875 C 59.566406 629.171875 44.480469 614.089844 44.480469 595.554688 L 44.480469 538.175781 L 405.164062 538.175781 C 405.183594 538.175781 405.203125 538.179688 405.21875 538.179688 C 405.238281 538.179688 405.257812 538.175781 405.273438 538.175781 L 671.957031 538.175781 C 672.21875 538.175781 672.46875 538.125 672.726562 538.097656 L 674.660156 538.097656 C 678.542969 538.097656 681.691406 534.949219 681.691406 531.070312 L 681.691406 515.90625 C 681.691406 495.769531 670.113281 477.933594 652.191406 470.476562 C 650.488281 469.765625 648.859375 468.847656 647.332031 467.734375 C 643.976562 465.277344 641.902344 461.617188 641.492188 457.433594 C 641.054688 452.890625 642.632812 448.296875 645.839844 444.84375 C 653.933594 436.101562 657.929688 424.25 656.820312 412.328125 C 654.976562 392.648438 639.386719 376.777344 619.757812 374.585938 C 607.792969 373.246094 595.816406 377.046875 586.90625 385.011719 C 577.988281 392.984375 572.878906 404.402344 572.878906 416.351562 C 572.878906 426.886719 576.804688 436.957031 583.925781 444.714844 C 587.460938 448.558594 589.03125 453.632812 588.242188 458.640625 C 587.515625 463.214844 584.917969 466.984375 580.925781 469.242188 C 580.074219 469.722656 579.203125 470.144531 578.324219 470.511719 C 560.453125 477.863281 548.902344 495.554688 548.902344 515.59375 L 548.902344 524.121094 L 412.25 524.121094 L 412.25 459.984375 L 450.960938 425.765625 L 505.445312 425.765625 C 509.328125 425.765625 512.476562 422.617188 512.476562 418.738281 L 512.476562 344.457031 L 765.960938 344.457031 L 765.960938 524.121094 L 706.9375 524.121094 C 703.050781 524.121094 699.90625 527.261719 699.90625 531.148438 C 699.90625 535.027344 703.050781 538.175781 706.9375 538.175781 L 765.960938 538.175781 L 765.960938 595.554688 C 765.960938 614.089844 750.871094 629.171875 732.324219 629.171875 Z M 467.601562 762.105469 L 345.84375 762.105469 L 361.90625 644.785156 L 451.535156 644.785156 Z M 78.117188 96.644531 L 732.324219 96.644531 C 750.871094 96.644531 765.960938 111.722656 765.960938 130.257812 L 765.960938 152.402344 L 44.480469 152.402344 L 44.480469 130.257812 C 44.480469 111.722656 59.566406 96.644531 78.117188 96.644531 Z M 170.597656 241.570312 C 165.855469 236.410156 163.246094 229.714844 163.246094 222.710938 C 163.246094 214.757812 166.652344 207.152344 172.585938 201.84375 C 178.605469 196.472656 186.394531 194.011719 194.503906 194.910156 C 207.542969 196.367188 217.894531 206.917969 219.121094 219.996094 C 219.878906 228.066406 217.285156 235.757812 211.820312 241.65625 C 205.902344 248.054688 202.976562 256.613281 203.808594 265.148438 C 204.601562 273.382812 208.703125 280.585938 215.34375 285.441406 C 217.761719 287.203125 220.367188 288.671875 223.089844 289.800781 C 235.558594 294.992188 243.933594 308.039062 243.933594 322.265625 L 243.933594 330.402344 L 139.277344 330.402344 L 139.277344 321.953125 C 139.277344 307.855469 147.601562 294.960938 159.988281 289.863281 C 161.410156 289.277344 162.8125 288.59375 164.164062 287.832031 C 171.847656 283.484375 177.054688 275.957031 178.441406 267.191406 C 179.898438 257.925781 177.042969 248.585938 170.597656 241.570312 Z M 310.453125 264.464844 C 302.78125 264.464844 296.542969 270.691406 296.542969 278.359375 L 296.542969 330.402344 L 257.996094 330.402344 L 257.996094 322.265625 C 257.996094 302.125 246.417969 284.292969 228.496094 276.835938 C 228.492188 276.835938 228.492188 276.835938 228.492188 276.835938 C 226.792969 276.125 225.164062 275.207031 223.644531 274.09375 C 220.28125 271.636719 218.207031 267.976562 217.804688 263.792969 C 217.355469 259.25 218.945312 254.65625 222.144531 251.203125 C 230.238281 242.460938 234.242188 230.609375 233.125 218.6875 C 231.28125 199.007812 215.695312 183.136719 196.066406 180.941406 C 184.089844 179.609375 172.121094 183.40625 163.210938 191.371094 C 154.300781 199.34375 149.183594 210.769531 149.183594 222.710938 C 149.183594 233.246094 153.109375 243.316406 160.238281 251.074219 C 163.765625 254.917969 165.335938 259.992188 164.546875 265 C 163.828125 269.574219 161.226562 273.34375 157.230469 275.601562 C 156.394531 276.078125 155.519531 276.503906 154.632812 276.871094 C 136.761719 284.222656 125.214844 301.914062 125.214844 321.953125 L 125.214844 330.402344 L 44.480469 330.402344 L 44.480469 168.015625 L 398.1875 168.015625 L 398.1875 264.464844 Z M 455.453125 303.300781 L 342.632812 303.300781 C 338.75 303.300781 335.601562 306.441406 335.601562 310.328125 L 335.601562 370.21875 L 310.605469 370.21875 L 310.605469 278.519531 L 455.453125 278.519531 Z M 170.597656 435.210938 C 165.855469 430.050781 163.246094 423.355469 163.246094 416.351562 C 163.246094 408.398438 166.652344 400.792969 172.585938 395.492188 C 178.605469 390.113281 186.378906 387.648438 194.503906 388.554688 C 207.542969 390.007812 217.894531 400.558594 219.121094 413.636719 C 219.878906 421.707031 217.285156 429.398438 211.820312 435.296875 C 205.902344 441.695312 202.976562 450.253906 203.808594 458.789062 C 204.601562 467.015625 208.703125 474.226562 215.34375 479.082031 C 217.761719 480.84375 220.359375 482.308594 223.082031 483.449219 C 223.082031 483.449219 223.089844 483.449219 223.089844 483.449219 C 235.558594 488.632812 243.933594 501.679688 243.933594 515.90625 L 243.933594 524.042969 L 139.277344 524.042969 L 139.277344 515.59375 C 139.277344 501.496094 147.601562 488.601562 159.980469 483.503906 C 161.390625 482.929688 162.796875 482.246094 164.164062 481.472656 C 171.855469 477.125 177.054688 469.597656 178.441406 460.832031 C 179.898438 451.566406 177.042969 442.226562 170.597656 435.210938 Z M 257.996094 524.121094 L 257.996094 515.90625 C 257.996094 495.769531 246.417969 477.933594 228.496094 470.476562 C 226.792969 469.765625 225.164062 468.847656 223.644531 467.734375 C 220.28125 465.277344 218.207031 461.617188 217.804688 457.433594 C 217.355469 452.890625 218.945312 448.296875 222.144531 444.84375 C 230.238281 436.101562 234.242188 424.25 233.125 412.328125 C 231.28125 392.648438 215.695312 376.777344 196.066406 374.585938 C 184.105469 373.246094 172.121094 377.046875 163.210938 385.011719 C 154.300781 392.984375 149.183594 404.410156 149.183594 416.351562 C 149.183594 426.886719 153.109375 436.957031 160.238281 444.714844 C 163.765625 448.558594 165.335938 453.632812 164.546875 458.640625 C 163.828125 463.222656 161.226562 466.984375 157.242188 469.242188 C 156.386719 469.722656 155.515625 470.144531 154.632812 470.511719 C 136.761719 477.863281 125.214844 495.554688 125.214844 515.59375 L 125.214844 524.121094 L 44.480469 524.121094 L 44.480469 344.457031 L 296.542969 344.457031 L 296.542969 370.378906 C 296.542969 378.046875 302.78125 384.273438 310.453125 384.273438 L 335.601562 384.273438 L 335.601562 418.738281 C 335.601562 422.617188 338.75 425.765625 342.632812 425.765625 L 398.1875 425.765625 L 398.1875 524.121094 Z M 405.910156 411.710938 L 349.664062 411.710938 L 349.664062 317.355469 L 498.414062 317.355469 L 498.414062 411.710938 L 448.292969 411.710938 C 446.578125 411.710938 444.925781 412.339844 443.636719 413.472656 L 412.941406 440.609375 L 412.941406 418.738281 C 412.941406 414.851562 409.792969 411.710938 405.910156 411.710938 Z M 652.1875 276.835938 C 650.488281 276.125 648.859375 275.207031 647.332031 274.09375 C 643.976562 271.636719 641.902344 267.976562 641.492188 263.792969 C 641.054688 259.25 642.632812 254.65625 645.839844 251.203125 C 653.933594 242.460938 657.9375 230.609375 656.820312 218.6875 C 654.976562 199.007812 639.386719 183.136719 619.757812 180.941406 C 607.792969 179.617188 595.8125 183.40625 586.90625 191.371094 C 577.988281 199.34375 572.878906 210.761719 572.878906 222.710938 C 572.878906 233.246094 576.804688 243.316406 583.925781 251.074219 C 587.460938 254.917969 589.03125 259.992188 588.242188 265 C 587.515625 269.574219 584.917969 273.339844 580.917969 275.601562 C 580.082031 276.078125 579.210938 276.503906 578.324219 276.871094 C 560.453125 284.222656 548.902344 301.914062 548.902344 321.953125 L 548.902344 330.402344 L 512.476562 330.402344 L 512.476562 310.328125 C 512.476562 306.441406 509.328125 303.300781 505.445312 303.300781 L 469.519531 303.300781 L 469.519531 278.359375 C 469.519531 270.691406 463.285156 264.464844 455.613281 264.464844 L 412.25 264.464844 L 412.25 168.015625 L 765.960938 168.015625 L 765.960938 330.402344 L 681.691406 330.402344 L 681.691406 322.265625 C 681.691406 302.125 670.105469 284.292969 652.1875 276.835938 Z M 594.285156 241.570312 C 589.550781 236.410156 586.941406 229.714844 586.941406 222.710938 C 586.941406 214.757812 590.34375 207.152344 596.28125 201.84375 C 602.292969 196.472656 610.089844 194.011719 618.195312 194.910156 C 631.238281 196.367188 641.589844 206.917969 642.816406 219.996094 C 643.566406 228.066406 640.980469 235.757812 635.515625 241.65625 C 629.597656 248.050781 626.671875 256.613281 627.496094 265.148438 C 628.289062 273.375 632.390625 280.585938 639.039062 285.441406 C 641.457031 287.203125 644.0625 288.671875 646.777344 289.800781 C 659.25 294.992188 667.628906 308.039062 667.628906 322.265625 L 667.628906 330.402344 L 562.96875 330.402344 L 562.96875 321.953125 C 562.96875 307.855469 571.292969 294.960938 583.675781 289.863281 C 585.105469 289.277344 586.507812 288.59375 587.851562 287.832031 C 595.542969 283.484375 600.75 275.957031 602.128906 267.191406 C 603.59375 257.925781 600.730469 248.585938 594.285156 241.570312 Z M 732.324219 81.027344 L 78.117188 81.027344 C 50.957031 81.027344 28.855469 103.113281 28.855469 130.257812 L 28.855469 595.554688 C 28.855469 622.703125 50.957031 644.785156 78.117188 644.785156 L 346.140625 644.785156 L 330.070312 762.105469 L 293.605469 762.105469 C 289.296875 762.105469 285.792969 765.601562 285.792969 769.914062 C 285.792969 774.226562 289.296875 777.722656 293.605469 777.722656 L 519.988281 777.722656 C 524.304688 777.722656 527.804688 774.226562 527.804688 769.914062 C 527.804688 765.601562 524.304688 762.105469 519.988281 762.105469 L 483.375 762.105469 L 467.300781 644.785156 L 732.324219 644.785156 C 759.492188 644.785156 781.585938 622.703125 781.585938 595.554688 L 781.585938 130.257812 C 781.585938 103.113281 759.492188 81.027344 732.324219 81.027344 " fill-opacity="1" fill-rule="nonzero"/></g><path fill="#100f0d" d="M 405.21875 594.640625 C 399.425781 594.640625 394.714844 589.925781 394.714844 584.136719 C 394.714844 578.347656 399.425781 573.636719 405.21875 573.636719 C 411.011719 573.636719 415.726562 578.347656 415.726562 584.136719 C 415.726562 589.925781 411.011719 594.640625 405.21875 594.640625 Z M 405.21875 558.023438 C 390.808594 558.023438 379.089844 569.742188 379.089844 584.136719 C 379.089844 598.539062 390.808594 610.253906 405.21875 610.253906 C 419.632812 610.253906 431.351562 598.539062 431.351562 584.136719 C 431.351562 569.742188 419.632812 558.023438 405.21875 558.023438 " fill-opacity="1" fill-rule="nonzero"/><path fill="#100f0d" d="M 375.941406 358.59375 L 471.496094 358.59375 C 475.378906 358.59375 478.527344 355.445312 478.527344 351.566406 C 478.527344 347.6875 475.378906 344.539062 471.496094 344.539062 L 375.941406 344.539062 C 372.050781 344.539062 368.910156 347.6875 368.910156 351.566406 C 368.910156 355.445312 372.050781 358.59375 375.941406 358.59375 " fill-opacity="1" fill-rule="nonzero"/><path fill="#100f0d" d="M 431.839844 382.394531 C 431.839844 378.515625 428.695312 375.367188 424.808594 375.367188 L 375.941406 375.367188 C 372.050781 375.367188 368.910156 378.515625 368.910156 382.394531 C 368.910156 386.273438 372.050781 389.421875 375.941406 389.421875 L 424.808594 389.421875 C 428.695312 389.421875 431.839844 386.273438 431.839844 382.394531 " fill-opacity="1" fill-rule="nonzero"/><path fill="#100f0d" d="M 471.496094 375.367188 L 449.941406 375.367188 C 446.0625 375.367188 442.910156 378.515625 442.910156 382.394531 C 442.910156 386.273438 446.0625 389.421875 449.941406 389.421875 L 471.496094 389.421875 C 475.378906 389.421875 478.527344 386.273438 478.527344 382.394531 C 478.527344 378.515625 475.378906 375.367188 471.496094 375.367188 " fill-opacity="1" fill-rule="nonzero"/><path fill="#100f0d" d="M 629.132812 233.792969 C 631.480469 231.890625 631.84375 228.453125 629.945312 226.101562 C 628.039062 223.761719 624.597656 223.394531 622.253906 225.296875 C 615.460938 230.792969 609.636719 226.394531 608.519531 225.4375 C 606.265625 223.460938 602.835938 223.664062 600.835938 225.902344 C 598.816406 228.152344 599.011719 231.605469 601.261719 233.617188 C 603.996094 236.0625 609.238281 238.9375 615.453125 238.9375 C 619.726562 238.9375 624.449219 237.582031 629.132812 233.792969 " fill-opacity="1" fill-rule="nonzero"/><path fill="#100f0d" d="M 205.441406 233.792969 C 207.785156 231.890625 208.152344 228.453125 206.25 226.101562 C 204.34375 223.761719 200.902344 223.394531 198.558594 225.296875 C 191.769531 230.789062 185.945312 226.394531 184.824219 225.4375 C 182.578125 223.460938 179.140625 223.664062 177.140625 225.902344 C 175.125 228.152344 175.3125 231.605469 177.566406 233.617188 C 180.308594 236.0625 185.550781 238.9375 191.765625 238.9375 C 196.03125 238.9375 200.761719 237.582031 205.441406 233.792969 " fill-opacity="1" fill-rule="nonzero"/><path fill="#100f0d" d="M 629.132812 427.433594 C 631.480469 425.53125 631.84375 422.09375 629.945312 419.75 C 628.039062 417.402344 624.597656 417.042969 622.253906 418.9375 C 615.460938 424.433594 609.636719 420.035156 608.519531 419.078125 C 606.265625 417.101562 602.835938 417.304688 600.835938 419.542969 C 598.816406 421.792969 599.011719 425.246094 601.261719 427.257812 C 603.996094 429.703125 609.238281 432.582031 615.453125 432.582031 C 619.726562 432.582031 624.449219 431.222656 629.132812 427.433594 " fill-opacity="1" fill-rule="nonzero"/><path fill="#100f0d" d="M 205.441406 427.433594 C 207.785156 425.53125 208.152344 422.09375 206.25 419.75 C 204.34375 417.402344 200.902344 417.042969 198.558594 418.9375 C 191.769531 424.433594 185.941406 420.035156 184.824219 419.078125 C 182.578125 417.101562 179.140625 417.304688 177.140625 419.542969 C 175.125 421.792969 175.3125 425.246094 177.566406 427.257812 C 180.308594 429.703125 185.550781 432.582031 191.765625 432.582031 C 196.03125 432.582031 200.761719 431.222656 205.441406 427.433594 " fill-opacity="1" fill-rule="nonzero"/></svg>