<svg xmlns="http://www.w3.org/2000/svg" xmlns:xlink="http://www.w3.org/1999/xlink" width="1080" zoomAndPan="magnify" viewBox="0 0 810 809.999993" height="1080" preserveAspectRatio="xMidYMid meet" version="1.0"><path fill="#000000" d="M 187.976562 338.84375 C 228.636719 338.84375 261.246094 305.820312 261.246094 265.550781 C 261.246094 225.277344 228.636719 191.851562 187.976562 191.851562 C 147.316406 191.851562 114.710938 224.875 114.710938 265.148438 C 114.710938 305.417969 147.71875 338.84375 187.976562 338.84375 Z M 187.976562 216.417969 C 214.949219 216.417969 237.09375 238.566406 237.09375 265.550781 C 237.09375 292.53125 214.949219 314.679688 187.976562 314.679688 C 161.003906 314.679688 138.863281 292.53125 138.863281 265.550781 C 138.863281 238.566406 161.003906 216.417969 187.976562 216.417969 Z M 187.976562 216.417969 " fill-opacity="1" fill-rule="nonzero"/><path fill="#000000" d="M 776.136719 118.558594 L 310.761719 118.558594 C 303.917969 118.558594 298.6875 124.199219 298.6875 130.640625 L 298.6875 167.289062 C 298.6875 174.132812 304.320312 179.371094 310.761719 179.371094 L 310.761719 303 C 310.761719 309.847656 315.996094 315.082031 322.839844 315.082031 L 277.75 340.050781 C 264.871094 346.898438 250.78125 350.921875 235.882812 350.921875 L 114.710938 350.921875 C 91.359375 350.921875 70.425781 366.628906 63.984375 389.179688 L 24.53125 529.324219 C 21.714844 539.390625 22.921875 550.265625 28.15625 559.125 C 33.390625 568.386719 41.84375 574.832031 51.90625 577.648438 C 54.726562 578.453125 57.945312 578.859375 60.765625 578.859375 C 75.660156 578.859375 89.75 568.789062 94.179688 553.890625 L 102.230469 524.894531 L 102.230469 733.902344 C 102.230469 747.59375 107.867188 760.882812 117.527344 770.546875 C 127.1875 780.210938 140.472656 785.851562 154.160156 785.851562 C 167.847656 785.851562 181.132812 780.617188 190.796875 770.546875 C 191.199219 770.144531 191.601562 769.339844 192.003906 768.9375 C 192.808594 770.144531 193.613281 771.351562 194.820312 772.5625 C 203.679688 781.421875 214.949219 785.851562 227.429688 785.851562 C 239.507812 785.851562 251.183594 781.019531 260.039062 772.5625 C 268.894531 763.703125 273.324219 752.425781 273.324219 739.941406 L 273.324219 430.257812 L 402.550781 355.757812 C 411.808594 350.519531 418.25 342.0625 421.066406 331.59375 C 423.886719 321.527344 422.277344 310.652344 417.042969 301.390625 C 407.78125 285.28125 387.25 279.644531 370.746094 288.503906 L 333.308594 309.847656 C 334.515625 307.832031 335.320312 305.820312 335.320312 303.402344 L 335.320312 179.773438 L 751.582031 179.773438 L 751.582031 449.183594 L 335.722656 449.183594 L 335.722656 437.105469 C 335.722656 430.257812 330.488281 424.621094 323.644531 424.621094 C 317.203125 425.023438 311.164062 429.855469 311.164062 436.699219 L 310.761719 461.265625 C 310.761719 464.488281 311.96875 467.710938 314.386719 470.125 C 316.800781 472.542969 320.023438 473.75 323.242188 473.75 L 514.0625 473.75 L 437.171875 550.667969 C 432.339844 555.5 432.339844 563.152344 437.171875 567.984375 C 439.585938 570.402344 442.808594 571.609375 445.625 571.609375 C 448.441406 571.609375 452.066406 570.402344 454.078125 567.984375 L 543.449219 478.582031 L 632.820312 567.984375 C 635.238281 570.402344 638.457031 571.609375 641.277344 571.609375 C 644.09375 571.609375 647.71875 570.402344 649.730469 567.984375 C 654.5625 563.152344 654.5625 555.5 649.730469 550.667969 L 572.839844 473.75 L 763.65625 473.75 C 770.5 473.75 775.734375 468.113281 775.734375 461.667969 L 775.734375 179.773438 C 782.578125 179.773438 787.8125 174.132812 787.8125 167.691406 L 787.8125 130.640625 C 788.214844 124.199219 782.578125 118.558594 776.136719 118.558594 Z M 243.128906 754.84375 C 235.078125 762.894531 220.988281 762.894531 212.9375 754.84375 C 208.910156 750.816406 206.496094 745.578125 206.496094 739.539062 L 206.496094 618.324219 C 206.496094 611.476562 200.859375 606.242188 194.417969 606.242188 C 187.574219 606.242188 182.34375 611.878906 182.34375 618.324219 L 182.34375 733.5 C 182.34375 740.746094 179.523438 747.996094 174.289062 752.828125 C 163.824219 763.300781 145.707031 763.300781 135.242188 752.828125 C 130.007812 747.59375 127.1875 740.746094 127.1875 733.5 L 127.1875 546.640625 L 249.570312 546.640625 L 249.570312 739.539062 C 249.167969 745.578125 247.15625 750.816406 243.128906 754.84375 Z M 383.226562 310.25 C 387.65625 307.832031 393.691406 309.445312 396.511719 313.875 C 398.523438 317.5 398.925781 321.527344 398.121094 325.554688 C 396.914062 329.582031 394.5 332.800781 390.875 334.816406 L 255.609375 412.539062 L 256.414062 413.746094 C 252.390625 415.761719 249.570312 419.789062 249.570312 424.621094 L 249.570312 522.476562 L 126.785156 522.476562 L 126.785156 436.699219 C 126.785156 429.855469 121.152344 424.621094 114.710938 424.621094 C 109.074219 424.621094 104.644531 428.648438 103.035156 433.882812 L 70.828125 547.445312 C 69.21875 552.679688 63.984375 555.902344 58.347656 554.292969 C 54.726562 553.488281 51.503906 551.070312 49.492188 547.445312 C 47.480469 544.222656 47.078125 540.199219 48.285156 536.574219 L 87.738281 396.027344 C 90.957031 383.945312 102.230469 375.488281 114.710938 375.488281 L 236.285156 375.488281 C 254.804688 375.488281 273.324219 370.65625 289.828125 361.796875 Z M 323.242188 155.207031 L 323.242188 143.125 L 763.65625 143.125 L 763.65625 155.207031 Z M 323.242188 155.207031 " fill-opacity="1" fill-rule="nonzero"/><path fill="#000000" d="M 702.46875 240.984375 C 702.46875 234.136719 696.832031 228.902344 690.390625 228.902344 L 396.511719 228.902344 C 389.667969 228.902344 384.433594 234.539062 384.433594 240.984375 C 384.433594 247.425781 390.070312 253.066406 396.511719 253.066406 L 690.390625 253.066406 C 697.234375 253.066406 702.46875 247.828125 702.46875 240.984375 Z M 702.46875 240.984375 " fill-opacity="1" fill-rule="nonzero"/><path fill="#000000" d="M 451.664062 326.761719 L 690.390625 326.761719 C 697.234375 326.761719 702.46875 321.125 702.46875 314.679688 C 702.46875 308.238281 696.832031 302.597656 690.390625 302.597656 L 451.664062 302.597656 C 444.820312 302.597656 439.585938 308.238281 439.585938 314.679688 C 439.585938 321.125 444.820312 326.761719 451.664062 326.761719 Z M 451.664062 326.761719 " fill-opacity="1" fill-rule="nonzero"/><path fill="#000000" d="M 390.472656 387.972656 C 390.472656 394.820312 396.109375 400.054688 402.550781 400.054688 L 696.429688 400.054688 C 703.273438 400.054688 708.503906 394.417969 708.503906 387.972656 C 708.503906 381.53125 702.871094 375.890625 696.429688 375.890625 L 402.550781 375.890625 C 396.109375 375.488281 390.472656 381.128906 390.472656 387.972656 Z M 390.472656 387.972656 " fill-opacity="1" fill-rule="nonzero"/></svg>