<svg xmlns="http://www.w3.org/2000/svg" xmlns:xlink="http://www.w3.org/1999/xlink" width="1080" zoomAndPan="magnify" viewBox="0 0 810 809.999993" height="1080" preserveAspectRatio="xMidYMid meet" version="1.0"><defs><clipPath id="26372fcff7"><path d="M 176 345 L 378 345 L 378 809.902344 L 176 809.902344 Z M 176 345 " clip-rule="nonzero"/></clipPath><clipPath id="a52c43fce8"><path d="M 64 440 L 167 440 L 167 809.902344 L 64 809.902344 Z M 64 440 " clip-rule="nonzero"/></clipPath><clipPath id="f705e45e7f"><path d="M 474 671 L 565 671 L 565 809.902344 L 474 809.902344 Z M 474 671 " clip-rule="nonzero"/></clipPath><clipPath id="f3c3665031"><path d="M 317 671 L 410 671 L 410 809.902344 L 317 809.902344 Z M 317 671 " clip-rule="nonzero"/></clipPath><clipPath id="958e1dcb9f"><path d="M 703 671 L 794 671 L 794 809.902344 L 703 809.902344 Z M 703 671 " clip-rule="nonzero"/></clipPath><clipPath id="07e7dd2eb3"><path d="M 149 4.402344 L 604 4.402344 L 604 306 L 149 306 Z M 149 4.402344 " clip-rule="nonzero"/></clipPath></defs><path fill="#100f0d" d="M 71.925781 579.644531 C 40.589844 579.644531 15.136719 554.15625 15.136719 522.847656 L 15.136719 436.570312 C 15.136719 417.882812 23.410156 400.355469 37.851562 388.492188 L 77.964844 355.550781 C 81.867188 352.308594 87.6875 352.875 90.894531 356.808594 C 94.136719 360.742188 93.570312 366.53125 89.636719 369.742188 L 49.523438 402.714844 C 39.363281 411.085938 33.511719 423.417969 33.511719 436.570312 L 33.511719 522.847656 C 33.511719 544.023438 50.75 561.265625 71.925781 561.265625 C 76.992188 561.265625 81.113281 565.390625 81.113281 570.453125 C 81.113281 575.519531 76.992188 579.644531 71.925781 579.644531 " fill-opacity="1" fill-rule="nonzero"/><g clip-path="url(#26372fcff7)"><path fill="#100f0d" d="M 198.335938 809.902344 L 185.3125 809.902344 C 180.246094 809.902344 176.125 805.78125 176.125 800.714844 C 176.125 795.617188 180.246094 791.496094 185.3125 791.496094 L 198.335938 791.496094 C 216.113281 791.496094 230.585938 777.023438 230.585938 759.242188 L 230.585938 442.394531 L 282.621094 477.601562 C 287.75 481.09375 293.886719 482.226562 299.894531 480.8125 C 305.933594 479.394531 310.9375 475.652344 313.988281 470.269531 L 356.558594 395.417969 C 359.417969 390.382812 360.082031 384.527344 358.445312 378.992188 C 356.839844 373.421875 353.097656 368.859375 347.96875 366.183594 C 338.152344 361.023438 325.882812 364.390625 320.09375 373.863281 L 290.171875 426.753906 L 217.65625 368.230469 C 213.691406 365.050781 213.09375 359.261719 216.269531 355.296875 C 219.480469 351.367188 225.269531 350.734375 229.199219 353.914062 L 284.824219 398.847656 L 304.238281 364.519531 C 315.246094 346.550781 338.152344 340.257812 356.523438 349.886719 C 366.089844 354.921875 373.042969 363.417969 376.09375 373.800781 C 379.144531 384.183594 377.886719 395.101562 372.539062 404.507812 L 329.972656 479.363281 C 324.433594 489.117188 314.996094 496.167969 304.078125 498.714844 C 293.160156 501.265625 281.585938 499.125 272.304688 492.832031 L 248.988281 477.035156 L 248.988281 759.242188 C 248.988281 787.183594 226.242188 809.902344 198.335938 809.902344 " fill-opacity="1" fill-rule="nonzero"/></g><g clip-path="url(#a52c43fce8)"><path fill="#100f0d" d="M 115.4375 809.902344 C 87.5 809.902344 64.785156 787.183594 64.785156 759.242188 L 64.785156 477.695312 L 64.972656 449.378906 C 65.035156 444.3125 69.125 440.253906 74.191406 440.253906 C 74.191406 440.253906 74.222656 440.253906 74.253906 440.253906 C 79.320312 440.285156 83.410156 444.4375 83.378906 449.503906 L 83.15625 477.757812 L 83.15625 759.242188 C 83.15625 777.023438 97.628906 791.496094 115.4375 791.496094 C 133.210938 791.496094 147.683594 777.023438 147.683594 759.242188 L 147.683594 594.996094 C 147.683594 589.933594 151.804688 585.808594 156.871094 585.808594 C 161.96875 585.808594 166.089844 589.933594 166.089844 594.996094 L 166.089844 759.242188 C 166.089844 787.183594 143.34375 809.902344 115.4375 809.902344 " fill-opacity="1" fill-rule="nonzero"/></g><path fill="#100f0d" d="M 156.871094 191.242188 C 116.003906 191.242188 82.746094 224.5 82.746094 265.371094 C 82.746094 306.246094 116.003906 339.503906 156.871094 339.503906 C 197.738281 339.503906 230.996094 306.246094 230.996094 265.371094 C 230.996094 224.5 197.738281 191.242188 156.871094 191.242188 Z M 156.871094 357.910156 C 105.871094 357.910156 64.375 316.40625 64.375 265.371094 C 64.375 214.367188 105.871094 172.832031 156.871094 172.832031 C 207.902344 172.832031 249.398438 214.367188 249.398438 265.371094 C 249.398438 316.40625 207.902344 357.910156 156.871094 357.910156 " fill-opacity="1" fill-rule="nonzero"/><g clip-path="url(#f705e45e7f)"><path fill="#100f0d" d="M 555.800781 809.902344 C 550.707031 809.902344 546.582031 805.78125 546.582031 800.714844 L 546.582031 772.050781 C 546.582031 755.972656 539.597656 740.773438 527.390625 730.328125 L 477.871094 687.945312 C 474.003906 684.671875 473.5625 678.851562 476.867188 674.980469 C 480.167969 671.140625 485.957031 670.671875 489.828125 673.972656 L 539.347656 716.359375 C 555.644531 730.296875 564.988281 750.589844 564.988281 772.050781 L 564.988281 800.714844 C 564.988281 805.78125 560.867188 809.902344 555.800781 809.902344 " fill-opacity="1" fill-rule="nonzero"/></g><g clip-path="url(#f3c3665031)"><path fill="#100f0d" d="M 326.886719 809.902344 C 321.824219 809.902344 317.703125 805.78125 317.703125 800.714844 L 317.703125 772.394531 C 317.703125 750.71875 327.234375 730.234375 343.847656 716.292969 L 394.277344 673.941406 C 398.179688 670.671875 403.96875 671.175781 407.242188 675.042969 C 410.480469 678.945312 409.976562 684.734375 406.109375 688.007812 L 355.675781 730.359375 C 343.21875 740.835938 336.074219 756.160156 336.074219 772.394531 L 336.074219 800.714844 C 336.074219 805.78125 331.953125 809.902344 326.886719 809.902344 " fill-opacity="1" fill-rule="nonzero"/></g><path fill="#100f0d" d="M 442.039062 546.289062 C 409.820312 546.289062 383.613281 578.289062 383.613281 617.683594 C 383.613281 657.046875 409.820312 689.078125 442.039062 689.078125 C 474.222656 689.078125 500.429688 657.046875 500.429688 617.683594 C 500.429688 578.289062 474.222656 546.289062 442.039062 546.289062 Z M 442.039062 707.484375 C 399.691406 707.484375 365.238281 667.179688 365.238281 617.683594 C 365.238281 568.15625 399.691406 527.882812 442.039062 527.882812 C 484.351562 527.882812 518.804688 568.15625 518.804688 617.683594 C 518.804688 667.179688 484.351562 707.484375 442.039062 707.484375 " fill-opacity="1" fill-rule="nonzero"/><g clip-path="url(#958e1dcb9f)"><path fill="#100f0d" d="M 784.683594 809.902344 C 779.617188 809.902344 775.496094 805.78125 775.496094 800.714844 L 775.496094 772.050781 C 775.496094 755.972656 768.511719 740.773438 756.273438 730.328125 L 706.785156 687.945312 C 702.914062 684.671875 702.445312 678.851562 705.746094 674.980469 C 709.050781 671.140625 714.871094 670.671875 718.742188 673.972656 L 768.230469 716.359375 C 784.527344 730.296875 793.871094 750.589844 793.871094 772.050781 L 793.871094 800.714844 C 793.871094 805.78125 789.78125 809.902344 784.683594 809.902344 " fill-opacity="1" fill-rule="nonzero"/></g><path fill="#100f0d" d="M 555.800781 781.617188 C 550.707031 781.617188 546.582031 777.492188 546.582031 772.394531 C 546.582031 750.71875 556.117188 730.234375 572.757812 716.292969 L 623.160156 673.941406 C 627.0625 670.671875 632.851562 671.175781 636.125 675.042969 C 639.394531 678.945312 638.890625 684.734375 634.992188 688.007812 L 584.589844 730.359375 C 572.128906 740.835938 564.988281 756.160156 564.988281 772.394531 C 564.988281 777.492188 560.867188 781.617188 555.800781 781.617188 " fill-opacity="1" fill-rule="nonzero"/><path fill="#100f0d" d="M 670.917969 546.289062 C 638.734375 546.289062 612.527344 578.289062 612.527344 617.683594 C 612.527344 657.046875 638.734375 689.078125 670.917969 689.078125 C 703.136719 689.078125 729.3125 657.046875 729.3125 617.683594 C 729.3125 578.289062 703.136719 546.289062 670.917969 546.289062 Z M 670.917969 707.484375 C 628.605469 707.484375 594.152344 667.179688 594.152344 617.683594 C 594.152344 568.15625 628.605469 527.882812 670.917969 527.882812 C 713.265625 527.882812 747.714844 568.15625 747.714844 617.683594 C 747.714844 667.179688 713.265625 707.484375 670.917969 707.484375 " fill-opacity="1" fill-rule="nonzero"/><g clip-path="url(#07e7dd2eb3)"><path fill="#100f0d" d="M 357.972656 305.207031 L 321.917969 229.3125 L 276.894531 229.3125 C 271.832031 229.3125 267.710938 225.191406 267.710938 220.09375 C 267.710938 215.027344 271.832031 210.90625 276.894531 210.90625 L 333.527344 210.90625 L 357.972656 262.351562 L 382.449219 210.90625 L 559.292969 210.90625 C 573.609375 210.90625 585.28125 199.265625 585.28125 184.917969 L 585.28125 48.769531 C 585.28125 34.453125 573.609375 22.808594 559.292969 22.808594 L 193.460938 22.808594 C 179.144531 22.808594 167.503906 34.453125 167.503906 48.769531 L 167.503906 148.699219 C 167.503906 153.765625 163.382812 157.886719 158.285156 157.886719 C 153.222656 157.886719 149.101562 153.765625 149.101562 148.699219 L 149.101562 48.769531 C 149.101562 24.320312 169.015625 4.402344 193.460938 4.402344 L 559.292969 4.402344 C 583.738281 4.402344 603.65625 24.320312 603.65625 48.769531 L 603.65625 184.917969 C 603.65625 209.394531 583.738281 229.3125 559.292969 229.3125 L 394.058594 229.3125 L 357.972656 305.207031 " fill-opacity="1" fill-rule="nonzero"/></g><path fill="#100f0d" d="M 325.789062 96.71875 C 318.550781 96.71875 312.636719 102.605469 312.636719 109.839844 C 312.636719 117.078125 318.550781 122.960938 325.789062 122.960938 C 333.023438 122.960938 338.90625 117.078125 338.90625 109.839844 C 338.90625 102.605469 333.023438 96.71875 325.789062 96.71875 " fill-opacity="1" fill-rule="nonzero"/><path fill="#100f0d" d="M 380.308594 96.71875 C 373.074219 96.71875 367.191406 102.605469 367.191406 109.839844 C 367.191406 117.078125 373.074219 122.960938 380.308594 122.960938 C 387.546875 122.960938 393.429688 117.078125 393.429688 109.839844 C 393.429688 102.605469 387.546875 96.71875 380.308594 96.71875 " fill-opacity="1" fill-rule="nonzero"/><path fill="#100f0d" d="M 434.832031 96.71875 C 427.597656 96.71875 421.714844 102.605469 421.714844 109.839844 C 421.714844 117.078125 427.597656 122.960938 434.832031 122.960938 C 442.070312 122.960938 447.953125 117.078125 447.953125 109.839844 C 447.953125 102.605469 442.070312 96.71875 434.832031 96.71875 " fill-opacity="1" fill-rule="nonzero"/></svg>